<svg width="18" height="17" viewBox="0 0 18 17" fill="none" xmlns="http://www.w3.org/2000/svg">
<path d="M10.3648 15.1304C10.2085 15.3949 9.98421 15.6145 9.71433 15.7671C9.44444 15.9197 9.13846 16 8.82701 16C8.51557 16 8.20958 15.9197 7.9397 15.7671C7.66982 15.6145 7.44551 15.3949 7.28924 15.1304M14.3333 6.23603C14.3333 4.84735 13.7714 3.51554 12.7712 2.5336C11.771 1.55165 10.4145 1 9 1C7.58551 1 6.22896 1.55165 5.22876 2.5336C4.22857 3.51554 3.66667 4.84735 3.66667 6.23603C3.66667 12.3447 1 14.0901 1 14.0901H17C17 14.0901 14.3333 12.3447 14.3333 6.23603Z" stroke="#BBB9B8" stroke-width="1.7" stroke-linecap="round" stroke-linejoin="round"/>
</svg>
