<svg width="14" height="12" viewBox="0 0 14 12" fill="none" xmlns="http://www.w3.org/2000/svg">
<path d="M13.2222 9.88889C13.2222 10.1836 13.1052 10.4662 12.8968 10.6746C12.6884 10.8829 12.4058 11 12.1111 11H2.11111C1.81643 11 1.53381 10.8829 1.32544 10.6746C1.11706 10.4662 1 10.1836 1 9.88889V3.77778C1 3.48309 1.11706 3.20048 1.32544 2.9921C1.53381 2.78373 1.81643 2.66667 2.11111 2.66667H4.33333L5.44444 1H8.77778L9.88889 2.66667H12.1111C12.4058 2.66667 12.6884 2.78373 12.8968 2.9921C13.1052 3.20048 13.2222 3.48309 13.2222 3.77778V9.88889Z" stroke="#808080" stroke-linecap="round" stroke-linejoin="round"/>
<path d="M7.11111 8.77778C8.33841 8.77778 9.33333 7.78286 9.33333 6.55556C9.33333 5.32826 8.33841 4.33333 7.11111 4.33333C5.88381 4.33333 4.88889 5.32826 4.88889 6.55556C4.88889 7.78286 5.88381 8.77778 7.11111 8.77778Z" stroke="#808080" stroke-linecap="round" stroke-linejoin="round"/>
</svg>
