<svg width="16" height="17" viewBox="0 0 16 17" fill="none" xmlns="http://www.w3.org/2000/svg">
<path d="M11.6689 0H4.33105C1.94287 0 0 2.0643 0 4.60175V12.3984C0 14.9357 1.94287 17 4.33105 17H11.6691C14.0571 17 16 14.9357 16 12.3984V4.60175C16 2.0643 14.0571 0 11.6689 0ZM8 13.1483C5.58765 13.1483 3.62512 11.0631 3.62512 8.5C3.62512 5.93687 5.58765 3.85169 8 3.85169C10.4124 3.85169 12.3749 5.93687 12.3749 8.5C12.3749 11.0631 10.4124 13.1483 8 13.1483ZM12.4795 4.94791C11.7666 4.94791 11.1868 4.33184 11.1868 3.57439C11.1868 2.81695 11.7666 2.20074 12.4795 2.20074C13.1924 2.20074 13.7723 2.81695 13.7723 3.57439C13.7723 4.33184 13.1924 4.94791 12.4795 4.94791Z" fill="white"/>
<path d="M8 4.8483C6.10498 4.8483 4.56311 6.48641 4.56311 8.5C4.56311 10.5135 6.10498 12.1517 8 12.1517C9.89514 12.1517 11.4369 10.5135 11.4369 8.5C11.4369 6.48641 9.89514 4.8483 8 4.8483Z" fill="white"/>
<path d="M12.4795 3.19749C12.2839 3.19749 12.1248 3.36662 12.1248 3.57439C12.1248 3.78217 12.2839 3.9513 12.4795 3.9513C12.6752 3.9513 12.8344 3.7823 12.8344 3.57439C12.8344 3.36649 12.6752 3.19749 12.4795 3.19749Z" fill="white"/>
</svg>
