<svg width="10" height="17" viewBox="0 0 10 17" fill="none" xmlns="http://www.w3.org/2000/svg">
<path d="M0.147329 9.12363C-0.261369 9.97713 0.202666 10.3851 1.26141 11.0821C2.16148 11.6728 3.40491 11.8888 4.20364 11.9752L3.53425 12.6595C2.58551 13.6192 1.68544 14.5485 1.05606 15.1924C0.139995 16.1252 1.61477 17.6218 2.53018 16.7088L5.00836 14.1696C5.9571 15.1392 6.8665 16.0685 7.48655 16.7124C8.40262 17.6289 9.87673 16.145 8.97066 15.1959L6.49248 12.663L5.81376 11.9788C6.62249 11.8924 7.84724 11.6636 8.73664 11.0856L8.73598 11.0849C9.79473 10.3844 10.2588 9.97713 9.85606 9.12363C9.61271 8.63915 8.95666 8.234 8.08326 8.93451C8.08326 8.93451 6.90384 9.89426 5.0017 9.89426C3.09888 9.89426 1.92013 8.93451 1.92013 8.93451C1.04673 8.23046 0.388014 8.63915 0.147329 9.12363Z" fill="white"/>
<path d="M4.99969 8.60019C7.31854 8.60019 9.21201 6.67503 9.21201 4.30506C9.21201 1.92516 7.31854 0 4.99969 0C2.68019 0 0.78671 1.92516 0.78671 4.30506C0.78671 6.67503 2.68019 8.60019 4.99969 8.60019ZM4.99969 2.18086C6.13911 2.18086 7.06852 3.13069 7.06852 4.30506C7.06852 5.4695 6.13911 6.41933 4.99969 6.41933C3.86028 6.41933 2.93087 5.4695 2.93087 4.30506C2.93021 3.12998 3.85961 2.18086 4.99969 2.18086Z" fill="white"/>
</svg>
