<svg width="15" height="13" viewBox="0 0 15 13" fill="none" xmlns="http://www.w3.org/2000/svg">
<path d="M15 1.539C14.4422 1.8 13.8478 1.973 13.2281 2.057C13.8656 1.651 14.3522 1.013 14.5809 0.244C13.9866 0.622 13.3303 0.889 12.6309 1.038C12.0666 0.397 11.2622 0 10.3847 0C8.68219 0 7.31156 1.474 7.31156 3.281C7.31156 3.541 7.33219 3.791 7.38281 4.029C4.82625 3.896 2.56406 2.589 1.04437 0.598C0.779062 1.089 0.623438 1.651 0.623438 2.256C0.623438 3.392 1.17188 4.399 1.98937 4.982C1.49531 4.972 1.01063 4.819 0.6 4.578C0.6 4.588 0.6 4.601 0.6 4.614C0.6 6.208 1.66594 7.532 3.06375 7.837C2.81344 7.91 2.54063 7.945 2.2575 7.945C2.06063 7.945 1.86187 7.933 1.67531 7.889C2.07375 9.188 3.20438 10.143 4.54875 10.174C3.5025 11.047 2.17406 11.573 0.735938 11.573C0.48375 11.573 0.241875 11.561 0 11.528C1.36219 12.465 2.97656 13 4.7175 13C10.3763 13 13.47 8 13.47 3.666C13.47 3.521 13.4653 3.381 13.4587 3.242C14.0691 2.78 14.5819 2.203 15 1.539Z" fill="white"/>
</svg>
