<svg width="20" height="11" viewBox="0 0 20 11" fill="none" xmlns="http://www.w3.org/2000/svg">
<path d="M19.1715 8.91015C18.576 8.21601 17.8753 7.6236 17.2122 6.99453C16.6141 6.4275 16.5763 6.09856 17.0572 5.44411C17.582 4.72983 18.1464 4.04294 18.6759 3.33189C19.1703 2.66736 19.6756 2.00465 19.9357 1.209C20.1007 0.702797 19.9548 0.479207 19.4207 0.390577C19.3286 0.375067 19.2335 0.374261 19.1398 0.374261L15.9709 0.370635C15.5806 0.364995 15.3649 0.530371 15.2268 0.866561C15.0405 1.32099 14.8484 1.77502 14.6264 2.21354C14.1227 3.20781 13.5602 4.16884 12.7715 4.98263C12.5976 5.1621 12.4053 5.38891 12.1147 5.29545C11.7512 5.16653 11.644 4.58439 11.65 4.3876L11.6469 0.832922C11.5764 0.325112 11.4606 0.0987018 10.9418 0L7.64998 0.000604349C7.21058 0.000604349 6.99025 0.165577 6.75563 0.432676C6.62028 0.586973 6.57945 0.687085 6.8576 0.738249C7.40396 0.838965 7.71175 1.18261 7.79341 1.71499C7.9244 2.56564 7.91529 3.41971 7.83984 4.27379C7.81766 4.52316 7.77351 4.77193 7.67175 5.00478C7.51257 5.37079 7.25556 5.44532 6.91792 5.22011C6.6122 5.01626 6.39747 4.72862 6.1873 4.43977C5.39782 3.35566 4.76794 2.18655 4.25433 0.958011C4.10593 0.603088 3.84996 0.387958 3.46299 0.382117C2.51226 0.367412 1.56132 0.364995 0.610587 0.382922C0.0385316 0.393397 -0.132049 0.663316 0.100919 1.1673C1.13642 3.40581 2.28903 5.58209 3.79358 7.56458C4.56606 8.58202 5.45296 9.4802 6.59873 10.1167C7.89725 10.8383 9.29506 11.0554 10.7673 10.9885C11.4566 10.9571 11.6637 10.7829 11.6956 10.1151C11.7172 9.65827 11.7704 9.20404 12.0024 8.79352C12.23 8.39066 12.5746 8.31391 12.972 8.56449C13.1707 8.68999 13.3382 8.84972 13.4964 9.01812C13.8844 9.43065 14.2585 9.85567 14.6612 10.2543C15.1663 10.7539 15.7647 11.049 16.5171 10.9887L19.4296 10.9893C19.8988 10.9595 20.1422 10.4003 19.8727 9.89133C19.6835 9.53479 19.4352 9.21733 19.1715 8.91015Z" fill="white"/>
</svg>
