<svg width="92" height="30" viewBox="0 0 92 30" fill="none" xmlns="http://www.w3.org/2000/svg">
<path d="M42.2 4.86667V1C42.2 0.466667 41.7333 0 41.2 0H20.5333C20 0 19.5333 0.466667 19.5333 1V18.4667L5.86667 0H1.06667L0 1.06667V28.9333C0 29.5238 0.451988 29.9852 1.03823 29.9996C1.04768 29.9999 1.05715 30 1.06667 30H5.26667C5.86667 30 6.33333 29.5333 6.33333 28.9333V10.9333L20.3333 30H24.6667C25.2667 30 25.7333 29.5333 25.7333 28.9333V5.86667H41.1333C41.7333 5.86667 42.2 5.4 42.2 4.86667Z"/>
<path d="M90.6 0H48.4C47.8667 0 47.4 0.466667 47.4 1V23.5333H31.6667C31.1333 23.5333 30.6667 24 30.6667 24.5333V28.9333C30.6667 29.4667 31.1333 29.9333 31.6667 29.9333H52.7333C53.2667 29.9333 53.7333 29.4667 53.7333 28.9333V6H76.4V28.9333C76.4 29.5333 76.8667 30 77.4667 30H81.7333C82.3333 30 82.8 29.5333 82.8 28.9333V6H90.6C91.2 6 91.6667 5.53333 91.6667 4.93333V1.06667C91.6667 0.466667 91.2 0 90.6 0Z"/>
<path d="M42.2 17.2V12.7333C42.2 12.2 41.7333 11.7333 41.2 11.7333H31.6667C31.1333 11.7333 30.6667 12.2 30.6667 12.7333V17.2C30.6667 17.7333 31.1333 18.2 31.6667 18.2H41.2C41.7333 18.2 42.2 17.8 42.2 17.2Z"/>
<path d="M68.6 11.8H59C58.4667 11.8 58 12.2667 58 12.8V17.2C58 17.7333 58.4667 18.2 59 18.2H68.6C69.1333 18.2 69.6 17.7333 69.6 17.2V12.8C69.6 12.2667 69.1333 11.8 68.6 11.8Z"/>
<path d="M0 1.06667L1.06667 0H0V1.06667Z"/>
<path d="M0 28.9333V30L1.03823 29.9996C0.451988 29.9852 0 29.5238 0 28.9333Z"/>
<path d="M6.33333 28.9333C6.33333 29.5333 5.86667 30 5.26667 30H6.33333V28.9333Z"/>
<path d="M25.7333 28.9333C25.7333 29.5333 25.2667 30 24.6667 30H25.7333V28.9333Z"/>
<path d="M19.5333 1C19.5333 0.466667 20 0 20.5333 0H19.5333V1Z"/>
<path d="M41.2 0C41.7333 0 42.2 0.466667 42.2 1V0H41.2Z"/>
<path d="M42.2 4.86667C42.2 5.4 41.7333 5.86667 41.1333 5.86667H42.2V4.86667Z"/>
<path d="M30.6667 12.7333C30.6667 12.2 31.1333 11.7333 31.6667 11.7333H30.6667V12.7333Z"/>
<path d="M41.2 11.7333C41.7333 11.7333 42.2 12.2 42.2 12.7333V11.7333H41.2Z"/>
<path d="M42.2 17.2C42.2 17.8 41.7333 18.2 41.2 18.2H42.2V17.2Z"/>
<path d="M31.6667 18.2C31.1333 18.2 30.6667 17.7333 30.6667 17.2V18.2H31.6667Z"/>
<path d="M30.6667 24.5333C30.6667 24 31.1333 23.5333 31.6667 23.5333H30.6667V24.5333Z"/>
<path d="M31.6667 29.9333C31.1333 29.9333 30.6667 29.4667 30.6667 28.9333V29.9333H31.6667Z"/>
<path d="M53.7333 28.9333C53.7333 29.4667 53.2667 29.9333 52.7333 29.9333H53.7333V28.9333Z"/>
<path d="M58 12.8C58 12.2667 58.4667 11.8 59 11.8H58V12.8Z"/>
<path d="M68.6 11.8C69.1333 11.8 69.6 12.2667 69.6 12.8V11.8H68.6Z"/>
<path d="M69.6 17.2C69.6 17.7333 69.1333 18.2 68.6 18.2H69.6V17.2Z"/>
<path d="M59 18.2C58.4667 18.2 58 17.7333 58 17.2V18.2H59Z"/>
<path d="M47.4 1C47.4 0.466667 47.8667 0 48.4 0H47.4V1Z"/>
<path d="M77.4667 30C76.8667 30 76.4 29.5333 76.4 28.9333V30H77.4667Z"/>
<path d="M82.8 28.9333C82.8 29.5333 82.3333 30 81.7333 30H82.8V28.9333Z"/>
<path d="M90.6 0C91.2 0 91.6667 0.466667 91.6667 1.06667V0H90.6Z"/>
<path d="M91.6667 4.93333C91.6667 5.53333 91.2 6 90.6 6H91.6667V4.93333Z"/>
</svg>
