<svg width="15" height="16" viewBox="0 0 15 16" fill="none" xmlns="http://www.w3.org/2000/svg">
<path fill-rule="evenodd" clip-rule="evenodd" d="M11.6364 1.45455C10.833 1.45455 10.1818 2.10577 10.1818 2.90909C10.1818 3.16168 10.2462 3.39922 10.3594 3.60622C10.3669 3.61745 10.374 3.62895 10.3809 3.64071C10.3877 3.65238 10.3941 3.66417 10.4002 3.67605C10.6569 4.08884 11.1145 4.36364 11.6364 4.36364C12.4397 4.36364 13.0909 3.71241 13.0909 2.90909C13.0909 2.10577 12.4397 1.45455 11.6364 1.45455ZM9.5695 4.95626C10.0967 5.4885 10.828 5.81818 11.6364 5.81818C13.243 5.81818 14.5455 4.51574 14.5455 2.90909C14.5455 1.30244 13.243 0 11.6364 0C10.0297 0 8.72727 1.30244 8.72727 2.90909C8.72727 3.18329 8.76521 3.44862 8.83611 3.70013L4.97595 5.95284C4.44875 5.42059 3.71742 5.09091 2.90909 5.09091C1.30244 5.09091 0 6.39335 0 8C0 9.60665 1.30244 10.9091 2.90909 10.9091C3.71757 10.9091 4.44903 10.5793 4.97625 10.0469L8.83703 12.2966C8.76553 12.5491 8.72727 12.8155 8.72727 13.0909C8.72727 14.6976 10.0297 16 11.6364 16C13.243 16 14.5455 14.6976 14.5455 13.0909C14.5455 11.4843 13.243 10.1818 11.6364 10.1818C10.8292 10.1818 10.0989 10.5105 9.57187 11.0414L5.70945 8.79064C5.78029 8.53924 5.81818 8.27405 5.81818 8C5.81818 7.72581 5.78025 7.46047 5.70934 7.20896L9.5695 4.95626ZM4.14524 7.23304C4.15133 7.24492 4.15778 7.25671 4.16459 7.26838C4.17145 7.28014 4.1786 7.29164 4.186 7.30287C4.29925 7.50986 4.36364 7.74741 4.36364 8C4.36364 8.25258 4.29926 8.49013 4.18601 8.69712C4.17851 8.70848 4.17129 8.72011 4.16436 8.73202C4.15763 8.74356 4.15126 8.75521 4.14524 8.76696C3.88858 9.17974 3.43093 9.45455 2.90909 9.45455C2.10577 9.45455 1.45455 8.80332 1.45455 8C1.45455 7.19668 2.10577 6.54545 2.90909 6.54545C3.43093 6.54545 3.88858 6.82026 4.14524 7.23304ZM10.3384 12.4338C10.3563 12.4102 10.373 12.3852 10.3884 12.3589C10.4031 12.3337 10.4161 12.308 10.4274 12.2819C10.6884 11.8926 11.1325 11.6364 11.6364 11.6364C12.4397 11.6364 13.0909 12.2876 13.0909 13.0909C13.0909 13.8942 12.4397 14.5455 11.6364 14.5455C10.833 14.5455 10.1818 13.8942 10.1818 13.0909C10.1818 12.8544 10.2382 12.6312 10.3384 12.4338Z" fill="#BBB9B8"/>
</svg>
